<svg xmlns="http://www.w3.org/2000/svg" xmlns:xlink="http://www.w3.org/1999/xlink" width="500" zoomAndPan="magnify" viewBox="0 0 375 374.999991" height="500" preserveAspectRatio="xMidYMid meet" version="1.0"><defs><g/><clipPath id="e1324b9e2f"><path d="M 82.421875 111.910156 L 140.15625 111.910156 L 140.15625 169.660156 L 82.421875 169.660156 Z M 82.421875 111.910156 " clip-rule="nonzero"/></clipPath></defs><rect x="-37.5" width="450" fill="#ffffff" y="-37.499999" height="449.999989" fill-opacity="1"/><g clip-path="url(#e1324b9e2f)"><path fill="#2cdbd6" d="M 140.15625 140.785156 C 140.15625 141.730469 140.109375 142.671875 140.015625 143.613281 C 139.921875 144.554688 139.785156 145.488281 139.601562 146.417969 C 139.414062 147.34375 139.1875 148.257812 138.910156 149.164062 C 138.636719 150.070312 138.320312 150.957031 137.957031 151.832031 C 137.59375 152.707031 137.191406 153.558594 136.746094 154.394531 C 136.300781 155.226562 135.8125 156.039062 135.289062 156.824219 C 134.761719 157.609375 134.199219 158.367188 133.601562 159.097656 C 133 159.832031 132.367188 160.53125 131.699219 161.199219 C 131.027344 161.867188 130.328125 162.5 129.597656 163.101562 C 128.867188 163.703125 128.109375 164.265625 127.320312 164.789062 C 126.535156 165.316406 125.726562 165.800781 124.890625 166.246094 C 124.058594 166.691406 123.203125 167.09375 122.332031 167.457031 C 121.457031 167.820312 120.566406 168.136719 119.664062 168.410156 C 118.757812 168.6875 117.839844 168.914062 116.914062 169.101562 C 115.984375 169.285156 115.050781 169.421875 114.109375 169.515625 C 113.167969 169.609375 112.226562 169.65625 111.28125 169.65625 C 110.335938 169.65625 109.390625 169.609375 108.449219 169.515625 C 107.507812 169.421875 106.574219 169.285156 105.648438 169.101562 C 104.71875 168.914062 103.804688 168.6875 102.898438 168.410156 C 101.992188 168.136719 101.105469 167.820312 100.230469 167.457031 C 99.355469 167.09375 98.503906 166.691406 97.667969 166.246094 C 96.835938 165.800781 96.023438 165.316406 95.238281 164.789062 C 94.453125 164.265625 93.691406 163.703125 92.960938 163.101562 C 92.230469 162.5 91.53125 161.867188 90.863281 161.199219 C 90.195312 160.53125 89.558594 159.832031 88.960938 159.097656 C 88.359375 158.367188 87.796875 157.609375 87.269531 156.824219 C 86.746094 156.039062 86.261719 155.226562 85.816406 154.394531 C 85.367188 153.558594 84.964844 152.707031 84.601562 151.832031 C 84.242188 150.957031 83.921875 150.070312 83.648438 149.164062 C 83.375 148.257812 83.144531 147.34375 82.960938 146.417969 C 82.777344 145.488281 82.636719 144.554688 82.542969 143.613281 C 82.453125 142.671875 82.40625 141.730469 82.40625 140.785156 C 82.40625 139.839844 82.453125 138.894531 82.542969 137.953125 C 82.636719 137.011719 82.777344 136.078125 82.960938 135.152344 C 83.144531 134.222656 83.375 133.308594 83.648438 132.402344 C 83.921875 131.496094 84.242188 130.609375 84.601562 129.734375 C 84.964844 128.863281 85.367188 128.007812 85.816406 127.171875 C 86.261719 126.339844 86.746094 125.53125 87.269531 124.742188 C 87.796875 123.957031 88.359375 123.199219 88.960938 122.46875 C 89.558594 121.738281 90.195312 121.035156 90.863281 120.367188 C 91.53125 119.699219 92.230469 119.066406 92.960938 118.464844 C 93.691406 117.867188 94.453125 117.304688 95.238281 116.777344 C 96.023438 116.253906 96.835938 115.765625 97.667969 115.320312 C 98.503906 114.875 99.355469 114.472656 100.230469 114.109375 C 101.105469 113.746094 101.992188 113.429688 102.898438 113.15625 C 103.804688 112.878906 104.71875 112.652344 105.648438 112.46875 C 106.574219 112.28125 107.507812 112.144531 108.449219 112.050781 C 109.390625 111.957031 110.335938 111.910156 111.28125 111.910156 C 112.226562 111.910156 113.167969 111.957031 114.109375 112.050781 C 115.050781 112.144531 115.984375 112.28125 116.914062 112.46875 C 117.839844 112.652344 118.757812 112.878906 119.664062 113.15625 C 120.566406 113.429688 121.457031 113.746094 122.332031 114.109375 C 123.203125 114.472656 124.058594 114.875 124.890625 115.320312 C 125.726562 115.765625 126.535156 116.253906 127.320312 116.777344 C 128.109375 117.304688 128.867188 117.867188 129.597656 118.464844 C 130.328125 119.066406 131.027344 119.699219 131.699219 120.367188 C 132.367188 121.035156 133 121.738281 133.601562 122.46875 C 134.199219 123.199219 134.761719 123.957031 135.289062 124.742188 C 135.8125 125.53125 136.300781 126.339844 136.746094 127.171875 C 137.191406 128.007812 137.59375 128.863281 137.957031 129.734375 C 138.320312 130.609375 138.636719 131.496094 138.910156 132.402344 C 139.1875 133.308594 139.414062 134.222656 139.601562 135.152344 C 139.785156 136.078125 139.921875 137.011719 140.015625 137.953125 C 140.109375 138.894531 140.15625 139.839844 140.15625 140.785156 Z M 140.15625 140.785156 " fill-opacity="1" fill-rule="nonzero"/></g><path fill="#75efe6" d="M 134.121094 145.808594 C 134.121094 146.488281 134.085938 147.164062 134.019531 147.839844 C 133.953125 148.511719 133.855469 149.179688 133.722656 149.847656 C 133.589844 150.511719 133.425781 151.167969 133.230469 151.816406 C 133.035156 152.464844 132.804688 153.101562 132.546875 153.726562 C 132.285156 154.351562 131.996094 154.964844 131.679688 155.5625 C 131.359375 156.160156 131.011719 156.738281 130.632812 157.300781 C 130.257812 157.867188 129.855469 158.410156 129.425781 158.933594 C 128.996094 159.457031 128.542969 159.957031 128.0625 160.4375 C 127.582031 160.914062 127.082031 161.371094 126.558594 161.800781 C 126.035156 162.230469 125.492188 162.632812 124.925781 163.007812 C 124.363281 163.386719 123.785156 163.734375 123.1875 164.054688 C 122.589844 164.371094 121.976562 164.660156 121.351562 164.921875 C 120.726562 165.179688 120.089844 165.40625 119.441406 165.605469 C 118.792969 165.800781 118.136719 165.964844 117.46875 166.097656 C 116.804688 166.230469 116.136719 166.328125 115.460938 166.394531 C 114.789062 166.460938 114.113281 166.496094 113.433594 166.496094 C 112.757812 166.496094 112.082031 166.460938 111.40625 166.394531 C 110.734375 166.328125 110.0625 166.230469 109.398438 166.097656 C 108.734375 165.964844 108.078125 165.800781 107.429688 165.605469 C 106.78125 165.40625 106.144531 165.179688 105.519531 164.921875 C 104.890625 164.660156 104.28125 164.371094 103.683594 164.054688 C 103.085938 163.734375 102.503906 163.386719 101.941406 163.007812 C 101.378906 162.632812 100.835938 162.230469 100.3125 161.800781 C 99.789062 161.371094 99.285156 160.914062 98.808594 160.4375 C 98.328125 159.957031 97.875 159.457031 97.445312 158.933594 C 97.015625 158.410156 96.609375 157.867188 96.234375 157.300781 C 95.859375 156.738281 95.511719 156.160156 95.191406 155.5625 C 94.871094 154.964844 94.582031 154.351562 94.324219 153.726562 C 94.0625 153.101562 93.835938 152.464844 93.640625 151.816406 C 93.441406 151.167969 93.277344 150.511719 93.144531 149.847656 C 93.011719 149.179688 92.914062 148.511719 92.847656 147.839844 C 92.78125 147.164062 92.75 146.488281 92.75 145.808594 C 92.75 145.132812 92.78125 144.457031 92.847656 143.78125 C 92.914062 143.109375 93.011719 142.441406 93.144531 141.773438 C 93.277344 141.109375 93.441406 140.453125 93.640625 139.804688 C 93.835938 139.15625 94.0625 138.519531 94.324219 137.894531 C 94.582031 137.269531 94.871094 136.65625 95.191406 136.058594 C 95.511719 135.460938 95.859375 134.882812 96.234375 134.320312 C 96.609375 133.753906 97.015625 133.210938 97.445312 132.6875 C 97.875 132.164062 98.328125 131.664062 98.808594 131.183594 C 99.285156 130.707031 99.789062 130.25 100.3125 129.820312 C 100.835938 129.390625 101.378906 128.988281 101.941406 128.613281 C 102.503906 128.234375 103.085938 127.886719 103.683594 127.566406 C 104.28125 127.25 104.890625 126.960938 105.519531 126.699219 C 106.144531 126.441406 106.78125 126.214844 107.429688 126.015625 C 108.078125 125.820312 108.734375 125.65625 109.398438 125.523438 C 110.0625 125.390625 110.734375 125.292969 111.40625 125.226562 C 112.082031 125.160156 112.757812 125.125 113.433594 125.125 C 114.113281 125.125 114.789062 125.160156 115.460938 125.226562 C 116.136719 125.292969 116.804688 125.390625 117.46875 125.523438 C 118.136719 125.65625 118.792969 125.820312 119.441406 126.015625 C 120.089844 126.214844 120.726562 126.441406 121.351562 126.699219 C 121.976562 126.960938 122.589844 127.25 123.1875 127.566406 C 123.785156 127.886719 124.363281 128.234375 124.925781 128.613281 C 125.492188 128.988281 126.035156 129.390625 126.558594 129.820312 C 127.082031 130.25 127.582031 130.707031 128.0625 131.183594 C 128.542969 131.664062 128.996094 132.164062 129.425781 132.6875 C 129.855469 133.210938 130.257812 133.753906 130.632812 134.320312 C 131.011719 134.882812 131.359375 135.460938 131.679688 136.058594 C 131.996094 136.65625 132.285156 137.269531 132.546875 137.894531 C 132.804688 138.519531 133.035156 139.15625 133.230469 139.804688 C 133.425781 140.453125 133.589844 141.109375 133.722656 141.773438 C 133.855469 142.441406 133.953125 143.109375 134.019531 143.78125 C 134.085938 144.457031 134.121094 145.132812 134.121094 145.808594 Z M 134.121094 145.808594 " fill-opacity="1" fill-rule="nonzero"/><path fill="#a9fff5" d="M 128.375 151.269531 C 128.375 152.078125 128.296875 152.882812 128.136719 153.679688 C 127.980469 154.472656 127.746094 155.246094 127.433594 155.996094 C 127.125 156.746094 126.742188 157.457031 126.292969 158.132812 C 125.84375 158.804688 125.332031 159.429688 124.757812 160.003906 C 124.183594 160.578125 123.558594 161.089844 122.882812 161.539062 C 122.210938 161.988281 121.5 162.371094 120.75 162.679688 C 120 162.992188 119.226562 163.226562 118.429688 163.382812 C 117.636719 163.542969 116.832031 163.621094 116.019531 163.621094 C 115.210938 163.621094 114.40625 163.542969 113.609375 163.382812 C 112.8125 163.226562 112.042969 162.992188 111.292969 162.679688 C 110.542969 162.371094 109.832031 161.988281 109.15625 161.539062 C 108.480469 161.089844 107.859375 160.578125 107.285156 160.003906 C 106.710938 159.429688 106.199219 158.804688 105.746094 158.132812 C 105.296875 157.457031 104.917969 156.746094 104.605469 155.996094 C 104.296875 155.246094 104.0625 154.472656 103.902344 153.679688 C 103.746094 152.882812 103.664062 152.078125 103.664062 151.269531 C 103.664062 150.457031 103.746094 149.65625 103.902344 148.859375 C 104.0625 148.0625 104.296875 147.292969 104.605469 146.542969 C 104.917969 145.792969 105.296875 145.082031 105.746094 144.40625 C 106.199219 143.730469 106.710938 143.109375 107.285156 142.535156 C 107.859375 141.960938 108.480469 141.449219 109.15625 141 C 109.832031 140.546875 110.542969 140.167969 111.292969 139.855469 C 112.042969 139.546875 112.8125 139.3125 113.609375 139.152344 C 114.40625 138.996094 115.210938 138.917969 116.019531 138.917969 C 116.832031 138.917969 117.636719 138.996094 118.429688 139.152344 C 119.226562 139.3125 120 139.546875 120.75 139.855469 C 121.5 140.167969 122.210938 140.546875 122.882812 141 C 123.558594 141.449219 124.183594 141.960938 124.757812 142.535156 C 125.332031 143.109375 125.84375 143.730469 126.292969 144.40625 C 126.742188 145.082031 127.125 145.792969 127.433594 146.542969 C 127.746094 147.292969 127.980469 148.0625 128.136719 148.859375 C 128.296875 149.65625 128.375 150.457031 128.375 151.269531 Z M 128.375 151.269531 " fill-opacity="1" fill-rule="nonzero"/><g fill="#363166" fill-opacity="1"><g transform="translate(140.063167, 167.113637)"><g><path d="M 24.1875 -5.484375 L 24.1875 0 L 2.953125 0 L 2.953125 -33.015625 L 9.765625 -33.015625 L 9.765625 -5.484375 Z M 24.1875 -5.484375 "/></g></g><g transform="translate(165.205791, 167.113637)"><g><path d="M 23.40625 -3.984375 C 22.519531 -2.734375 21.257812 -1.679688 19.625 -0.828125 C 17.988281 0.0234375 16.054688 0.453125 13.828125 0.453125 C 11.367188 0.453125 9.21875 -0.0664062 7.375 -1.109375 C 5.53125 -2.148438 4.117188 -3.570312 3.140625 -5.375 C 2.160156 -7.175781 1.664062 -9.171875 1.65625 -11.359375 L 1.65625 -12.3125 C 1.65625 -14.78125 2.125 -16.972656 3.0625 -18.890625 C 4 -20.804688 5.332031 -22.300781 7.0625 -23.375 C 8.789062 -24.445312 10.804688 -24.984375 13.109375 -24.984375 C 15.421875 -24.984375 17.382812 -24.488281 19 -23.5 C 20.613281 -22.507812 21.835938 -21.109375 22.671875 -19.296875 C 23.503906 -17.484375 23.921875 -15.359375 23.921875 -12.921875 L 23.921875 -10.140625 L 8.296875 -10.140625 C 8.523438 -8.515625 9.160156 -7.222656 10.203125 -6.265625 C 11.242188 -5.304688 12.585938 -4.828125 14.234375 -4.828125 C 16.734375 -4.828125 18.707031 -5.742188 20.15625 -7.578125 Z M 13.0625 -19.703125 C 11.71875 -19.703125 10.660156 -19.25 9.890625 -18.34375 C 9.117188 -17.445312 8.609375 -16.207031 8.359375 -14.625 L 17.484375 -14.625 L 17.484375 -15.125 C 17.453125 -16.507812 17.066406 -17.617188 16.328125 -18.453125 C 15.597656 -19.285156 14.507812 -19.703125 13.0625 -19.703125 Z M 13.0625 -19.703125 "/></g></g><g transform="translate(190.303072, 167.113637)"><g><path d="M 13.109375 -19.6875 C 11.242188 -19.6875 9.859375 -18.898438 8.953125 -17.328125 L 8.953125 0 L 2.40625 0 L 2.40625 -24.53125 L 8.546875 -24.53125 L 8.78125 -21.71875 C 10.53125 -23.894531 12.878906 -24.984375 15.828125 -24.984375 C 18.273438 -24.984375 20.175781 -24.257812 21.53125 -22.8125 C 22.882812 -21.363281 23.566406 -19.003906 23.578125 -15.734375 L 23.578125 0 L 17 0 L 17 -15.640625 C 17 -17.148438 16.679688 -18.203125 16.046875 -18.796875 C 15.410156 -19.390625 14.429688 -19.6875 13.109375 -19.6875 Z M 13.109375 -19.6875 "/></g></g></g><g fill="#363166" fill-opacity="1"><g transform="translate(210.249353, 206.634626)"><g><path d="M 6.5 0 L 6.5 -72.796875 L 28.953125 -72.796875 C 35.421875 -72.796875 41.171875 -71.335938 46.203125 -68.421875 C 51.234375 -65.503906 55.15625 -61.410156 57.96875 -56.140625 C 60.789062 -50.878906 62.203125 -44.832031 62.203125 -38 L 62.203125 -34.75 C 62.203125 -27.882812 60.789062 -21.828125 57.96875 -16.578125 C 55.15625 -11.328125 51.222656 -7.25 46.171875 -4.34375 C 41.128906 -1.445312 35.320312 0 28.75 0 Z M 21.546875 -60.65625 L 21.546875 -12.09375 L 28.75 -12.09375 C 34.613281 -12.09375 39.097656 -14 42.203125 -17.8125 C 45.304688 -21.632812 46.890625 -27.128906 46.953125 -34.296875 L 46.953125 -38.109375 C 46.953125 -52.941406 41.101562 -60.457031 29.40625 -60.65625 Z M 21.546875 -60.65625 "/></g></g></g><g fill="#363166" fill-opacity="1"><g transform="translate(109.86552, 206.340723)"><g><path d="M 2.953125 0 L 2.953125 -33.015625 L 24.46875 -33.015625 L 24.46875 -27.5 L 9.765625 -27.5 L 9.765625 -18.984375 L 22.828125 -18.984375 L 22.828125 -13.484375 L 9.765625 -13.484375 L 9.765625 0 Z M 2.953125 0 "/></g></g><g transform="translate(135.325544, 206.340723)"><g><path d="M 13.9375 -18.59375 C 11.476562 -18.59375 9.863281 -17.753906 9.09375 -16.078125 L 9.09375 0 L 2.515625 0 L 2.515625 -24.53125 L 8.703125 -24.53125 L 8.90625 -21.609375 C 10.207031 -23.859375 12.03125 -24.984375 14.375 -24.984375 C 15.21875 -24.984375 15.890625 -24.882812 16.390625 -24.6875 L 16.328125 -18.40625 Z M 13.9375 -18.59375 "/></g></g><g transform="translate(152.283779, 206.340723)"><g><path d="M 2.46875 -30.875 C 2.46875 -31.875 2.800781 -32.691406 3.46875 -33.328125 C 4.144531 -33.960938 5.035156 -34.28125 6.140625 -34.28125 C 7.242188 -34.28125 8.128906 -33.960938 8.796875 -33.328125 C 9.472656 -32.691406 9.8125 -31.875 9.8125 -30.875 C 9.8125 -29.894531 9.472656 -29.085938 8.796875 -28.453125 C 8.128906 -27.816406 7.242188 -27.5 6.140625 -27.5 C 5.035156 -27.5 4.144531 -27.816406 3.46875 -28.453125 C 2.800781 -29.085938 2.46875 -29.894531 2.46875 -30.875 Z M 9.453125 -24.53125 L 9.453125 0 L 2.875 0 L 2.875 -24.53125 Z M 9.453125 -24.53125 "/></g></g><g transform="translate(164.59437, 206.340723)"><g><path d="M 23.40625 -3.984375 C 22.519531 -2.734375 21.257812 -1.679688 19.625 -0.828125 C 17.988281 0.0234375 16.054688 0.453125 13.828125 0.453125 C 11.367188 0.453125 9.21875 -0.0664062 7.375 -1.109375 C 5.53125 -2.148438 4.117188 -3.570312 3.140625 -5.375 C 2.160156 -7.175781 1.664062 -9.171875 1.65625 -11.359375 L 1.65625 -12.3125 C 1.65625 -14.78125 2.125 -16.972656 3.0625 -18.890625 C 4 -20.804688 5.332031 -22.300781 7.0625 -23.375 C 8.789062 -24.445312 10.804688 -24.984375 13.109375 -24.984375 C 15.421875 -24.984375 17.382812 -24.488281 19 -23.5 C 20.613281 -22.507812 21.835938 -21.109375 22.671875 -19.296875 C 23.503906 -17.484375 23.921875 -15.359375 23.921875 -12.921875 L 23.921875 -10.140625 L 8.296875 -10.140625 C 8.523438 -8.515625 9.160156 -7.222656 10.203125 -6.265625 C 11.242188 -5.304688 12.585938 -4.828125 14.234375 -4.828125 C 16.734375 -4.828125 18.707031 -5.742188 20.15625 -7.578125 Z M 13.0625 -19.703125 C 11.71875 -19.703125 10.660156 -19.25 9.890625 -18.34375 C 9.117188 -17.445312 8.609375 -16.207031 8.359375 -14.625 L 17.484375 -14.625 L 17.484375 -15.125 C 17.453125 -16.507812 17.066406 -17.617188 16.328125 -18.453125 C 15.597656 -19.285156 14.507812 -19.703125 13.0625 -19.703125 Z M 13.0625 -19.703125 "/></g></g><g transform="translate(189.69165, 206.340723)"><g><path d="M 13.109375 -19.6875 C 11.242188 -19.6875 9.859375 -18.898438 8.953125 -17.328125 L 8.953125 0 L 2.40625 0 L 2.40625 -24.53125 L 8.546875 -24.53125 L 8.78125 -21.71875 C 10.53125 -23.894531 12.878906 -24.984375 15.828125 -24.984375 C 18.273438 -24.984375 20.175781 -24.257812 21.53125 -22.8125 C 22.882812 -21.363281 23.566406 -19.003906 23.578125 -15.734375 L 23.578125 0 L 17 0 L 17 -15.640625 C 17 -17.148438 16.679688 -18.203125 16.046875 -18.796875 C 15.410156 -19.390625 14.429688 -19.6875 13.109375 -19.6875 Z M 13.109375 -19.6875 "/></g></g></g><g fill="#363166" fill-opacity="1"><g transform="translate(94.009285, 206.561155)"><g><path d="M 8.34375 0 C 8.207031 -0.289062 8.097656 -0.65625 8.015625 -1.09375 C 7.222656 -0.21875 6.195312 0.21875 4.9375 0.21875 C 4.164062 0.21875 3.460938 0.0625 2.828125 -0.25 C 2.191406 -0.5625 1.691406 -1 1.328125 -1.5625 C 0.960938 -2.125 0.78125 -2.75 0.78125 -3.4375 C 0.78125 -4.738281 1.257812 -5.738281 2.21875 -6.4375 C 3.175781 -7.132812 4.578125 -7.484375 6.421875 -7.484375 L 7.890625 -7.484375 L 7.890625 -8.1875 C 7.890625 -8.78125 7.738281 -9.238281 7.4375 -9.5625 C 7.144531 -9.882812 6.691406 -10.046875 6.078125 -10.046875 C 4.910156 -10.046875 4.328125 -9.554688 4.328125 -8.578125 L 1.046875 -8.578125 C 1.046875 -9.285156 1.257812 -9.9375 1.6875 -10.53125 C 2.125 -11.125 2.738281 -11.59375 3.53125 -11.9375 C 4.320312 -12.289062 5.226562 -12.46875 6.25 -12.46875 C 7.207031 -12.46875 8.054688 -12.304688 8.796875 -11.984375 C 9.535156 -11.660156 10.113281 -11.175781 10.53125 -10.53125 C 10.957031 -9.882812 11.171875 -9.097656 11.171875 -8.171875 L 11.171875 -2.71875 C 11.171875 -1.65625 11.332031 -0.8125 11.65625 -0.1875 L 11.65625 0 Z M 5.640625 -2.28125 C 6.160156 -2.28125 6.617188 -2.394531 7.015625 -2.625 C 7.410156 -2.851562 7.703125 -3.128906 7.890625 -3.453125 L 7.890625 -5.578125 L 6.546875 -5.578125 C 5.722656 -5.578125 5.097656 -5.398438 4.671875 -5.046875 C 4.253906 -4.703125 4.046875 -4.242188 4.046875 -3.671875 C 4.046875 -3.265625 4.1875 -2.929688 4.46875 -2.671875 C 4.757812 -2.410156 5.148438 -2.28125 5.640625 -2.28125 Z M 5.640625 -2.28125 "/></g></g></g></svg>